<?xml version="1.0" standalone="no"?>
<!DOCTYPE svg PUBLIC "-//W3C//DTD SVG 20010904//EN"
 "http://www.w3.org/TR/2001/REC-SVG-20010904/DTD/svg10.dtd">
<svg version="1.0" xmlns="http://www.w3.org/2000/svg"
 width="188.000000pt" height="188.000000pt" viewBox="0 0 188.000000 188.000000"
 preserveAspectRatio="xMidYMid meet">

<g transform="translate(0.000000,188.000000) scale(0.100000,-0.100000)"
fill="#000000" stroke="none">
<path d="M61 1856 c-52 -29 -50 0 -51 -904 0 -916 -2 -884 55 -910 37 -17
1693 -17 1730 0 57 26 55 -5 55 908 0 913 2 882 -55 908 -40 18 -1701 16
-1734 -2z m1037 -401 c29 -9 52 -19 52 -23 0 -13 -232 -957 -236 -961 -8 -8
-116 18 -140 34 -13 8 -21 21 -19 28 2 6 43 215 90 462 47 248 88 456 90 463
6 17 100 15 163 -3z m335 -365 l167 -95 15 -49 c8 -27 15 -75 15 -105 l0 -56
-127 -90 c-251 -178 -220 -161 -245 -139 -28 26 -78 104 -78 123 1 9 50 59
110 111 l109 94 -115 84 c-63 46 -114 90 -114 98 0 9 5 25 11 37 14 27 71 88
79 85 3 -2 81 -46 173 -98z m-786 15 c18 -26 33 -55 33 -64 0 -10 -47 -59
-105 -110 -58 -51 -105 -96 -105 -99 0 -4 19 -20 43 -37 23 -16 74 -53 114
-82 70 -52 72 -54 61 -81 -17 -38 -56 -89 -74 -96 -8 -3 -87 36 -184 91 -190
109 -187 105 -197 229 l-6 71 174 125 c196 143 186 140 246 53z"/>
</g>
</svg>
